<svg xmlns="http://www.w3.org/2000/svg" xmlns:xlink="http://www.w3.org/1999/xlink" width="1920" height="1080" viewBox="0 0 1920 1080">
  <defs>
    <filter id="Rectangle_2" x="448" y="395" width="1024" height="296" filterUnits="userSpaceOnUse">
      <feOffset dy="3" input="SourceAlpha"/>
      <feGaussianBlur stdDeviation="3" result="blur"/>
      <feFlood flood-opacity="0.161"/>
      <feComposite operator="in" in2="blur"/>
      <feComposite in="SourceGraphic"/>
    </filter>
    <clipPath id="clip-path">
      <rect id="Rectangle_12" data-name="Rectangle 12" width="147" height="55" transform="translate(1233 693)" fill="#fff" stroke="#707070" stroke-width="1"/>
    </clipPath>
    <clipPath id="clip-Web_1920_1">
      <rect width="1920" height="1080"/>
    </clipPath>
  </defs>
  <g id="Web_1920_1" data-name="Web 1920 – 1" clip-path="url(#clip-Web_1920_1)">
    <rect width="1920" height="1080" fill="#fff"/>
    <rect id="Rectangle_1" data-name="Rectangle 1" width="1920" height="1080" fill="#002d0b"/>
    <g id="Group_2" data-name="Group 2" transform="translate(-73 -88)">
      <g transform="matrix(1, 0, 0, 1, 73, 88)" filter="url(#Rectangle_2)">
        <g id="Rectangle_2-2" data-name="Rectangle 2" transform="translate(457 401)" stroke="#707070" stroke-width="3">
          <rect width="1006" height="278" rx="23" stroke="none"/>
          <rect x="1.5" y="1.5" width="1003" height="275" rx="21.5" fill="none"/>
        </g>
      </g>
      <g id="Group_1" data-name="Group 1">
        <g id="Rectangle_3" data-name="Rectangle 3" transform="translate(558 509)" fill="#ffd064" stroke="#707070" stroke-width="1">
          <rect width="950" height="86" rx="13" stroke="none"/>
          <rect x="0.5" y="0.5" width="949" height="85" rx="12.5" fill="none"/>
        </g>
        <text id="DEPARTURES" transform="translate(893 528)" font-size="39" font-family="CenturyGothic, Century Gothic"><tspan x="-115.838" y="38">DEPARTURES</tspan></text>
      </g>
    </g>
    <text id="THE_WEDDING_OF_JEANNE_TREVOR" data-name="THE WEDDING OF 

JEANNE &amp; TREVOR" transform="translate(707 195)" fill="#926f34" font-size="35" font-family="Constantia"><tspan x="-152.373" y="33">THE WEDDING OF </tspan><tspan font-size="39"><tspan x="0" y="79"></tspan></tspan><tspan font-size="50" font-family="Constantia-Bold, Constantia" font-weight="700"><tspan x="-224.854" y="137">JEANNE &amp; TREVOR</tspan></tspan></text>
    <text id="Destination" transform="translate(509 561)" fill="#fff" font-size="30" font-family="CourierNewPS-BoldMT, Courier New" font-weight="700"><tspan x="-99.016" y="25">Destination</tspan></text>
    <text id="CRETE" transform="translate(493 611)" fill="#fff" font-size="39" font-family="CourierNewPS-BoldMT, Courier New" font-weight="700"><tspan x="-58.51" y="32">CRETE</tspan></text>
    <text id="Gate" transform="translate(977 561)" fill="#fff" font-size="30" font-family="CourierNewPS-BoldMT, Courier New" font-weight="700"><tspan x="-36.006" y="25">Gate</tspan></text>
    <text id="_23" data-name="23" transform="translate(977 611)" fill="#fff" font-size="39" font-family="CourierNewPS-BoldMT, Courier New" font-weight="700"><tspan x="-23.404" y="32">23</tspan></text>
    <text id="Flight" transform="translate(770 561)" fill="#fff" font-size="30" font-family="CourierNewPS-BoldMT, Courier New" font-weight="700"><tspan x="-54.009" y="25">Flight</tspan></text>
    <text id="JT2109" transform="translate(770 611)" fill="#fff" font-size="39" font-family="CourierNewPS-BoldMT, Courier New" font-weight="700"><tspan x="-70.211" y="32">JT2109</tspan></text>
    <g id="Rectangle_4" data-name="Rectangle 4" transform="translate(493 550)" fill="none" stroke="#707070" stroke-width="1">
      <rect width="237" height="55" stroke="none"/>
      <rect x="0.5" y="0.5" width="236" height="54" fill="none"/>
    </g>
    <g id="Rectangle_9" data-name="Rectangle 9" transform="translate(493 605)" fill="none" stroke="#707070" stroke-width="1">
      <rect width="237" height="55" stroke="none"/>
      <rect x="0.5" y="0.5" width="236" height="54" fill="none"/>
    </g>
    <g id="Rectangle_5" data-name="Rectangle 5" transform="translate(730 550)" fill="none" stroke="#707070" stroke-width="1">
      <rect width="237" height="55" stroke="none"/>
      <rect x="0.5" y="0.5" width="236" height="54" fill="none"/>
    </g>
    <g id="Rectangle_8" data-name="Rectangle 8" transform="translate(730 605)" fill="none" stroke="#707070" stroke-width="1">
      <rect width="237" height="55" stroke="none"/>
      <rect x="0.5" y="0.5" width="236" height="54" fill="none"/>
    </g>
    <g id="Rectangle_6" data-name="Rectangle 6" transform="translate(967 550)" fill="none" stroke="#707070" stroke-width="1">
      <rect width="186" height="55" stroke="none"/>
      <rect x="0.5" y="0.5" width="185" height="54" fill="none"/>
    </g>
    <g id="Rectangle_7" data-name="Rectangle 7" transform="translate(967 605)" fill="none" stroke="#707070" stroke-width="1">
      <rect width="186" height="55" stroke="none"/>
      <rect x="0.5" y="0.5" width="185" height="54" fill="none"/>
    </g>
    <g id="Rectangle_10" data-name="Rectangle 10" transform="translate(1153 550)" fill="none" stroke="#707070" stroke-width="1">
      <rect width="282" height="55" stroke="none"/>
      <rect x="0.5" y="0.5" width="281" height="54" fill="none"/>
    </g>
    <g id="Rectangle_11" data-name="Rectangle 11" transform="translate(1153 605)" fill="none" stroke="#707070" stroke-width="1">
      <rect width="282" height="55" stroke="none"/>
      <rect x="0.5" y="0.5" width="281" height="54" fill="none"/>
    </g>
    <g id="Mask_Group_1" data-name="Mask Group 1" transform="translate(-73 -88)" clip-path="url(#clip-path)">
      <text id="_0_1_2_3_4_5_6_7_8_9_0" data-name="0
1
2
3
4
5
6
7
8
9
0" transform="translate(1247 702)" fill="#00ad2a" font-size="39" font-family="CourierNewPS-BoldMT, Courier New" font-weight="700"><tspan x="-11.702" y="32">0</tspan><tspan x="-11.702" y="76">1</tspan><tspan x="-11.702" y="120">2</tspan><tspan x="-11.702" y="164">3</tspan><tspan x="-11.702" y="208">4</tspan><tspan x="-11.702" y="252">5</tspan><tspan x="-11.702" y="296">6</tspan><tspan x="-11.702" y="340">7</tspan><tspan x="-11.702" y="384">8</tspan><tspan x="-11.702" y="428">9</tspan><tspan x="-11.702" y="472">0</tspan></text>
      <text id="_0_1_2_3_4_5_6_7_8_9_0_12_3_4_5_6_7_8_9_0" data-name="0
1
2
3
4
5
6
7
8
9
0
12
3
4
5
6
7
8
9
0" transform="translate(1277 702)" fill="#00ad2a" font-size="39" font-family="CourierNewPS-BoldMT, Courier New" font-weight="700"><tspan x="-11.702" y="32">0</tspan><tspan x="-11.702" y="76">1</tspan><tspan x="-11.702" y="120">2</tspan><tspan x="-11.702" y="164">3</tspan><tspan x="-11.702" y="208">4</tspan><tspan x="-11.702" y="252">5</tspan><tspan x="-11.702" y="296">6</tspan><tspan x="-11.702" y="340">7</tspan><tspan x="-11.702" y="384">8</tspan><tspan x="-11.702" y="428">9</tspan><tspan x="-11.702" y="472">0</tspan><tspan x="-11.702" y="516">1</tspan><tspan x="-11.702" y="560">2</tspan><tspan x="-11.702" y="604">3</tspan><tspan x="-11.702" y="648">4</tspan><tspan x="-11.702" y="692">5</tspan><tspan x="-11.702" y="736">6</tspan><tspan x="-11.702" y="780">7</tspan><tspan x="-11.702" y="824">8</tspan><tspan x="-11.702" y="868">9</tspan><tspan x="-11.702" y="912">0</tspan></text>
      <text id="_0_1_2_3_4_5_6_7_8_9_0_12_3_4_5_6_7_8_9_0_1_2_3_4_5_6_7_8_9_0" data-name="0
1
2
3
4
5
6
7
8
9
0
12
3
4
5
6
7
8
9
0
1
2
3
4
5
6
7
8
9
0" transform="translate(1307 702)" fill="#00ad2a" font-size="39" font-family="CourierNewPS-BoldMT, Courier New" font-weight="700"><tspan x="-11.702" y="32">0</tspan><tspan x="-11.702" y="76">1</tspan><tspan x="-11.702" y="120">2</tspan><tspan x="-11.702" y="164">3</tspan><tspan x="-11.702" y="208">4</tspan><tspan x="-11.702" y="252">5</tspan><tspan x="-11.702" y="296">6</tspan><tspan x="-11.702" y="340">7</tspan><tspan x="-11.702" y="384">8</tspan><tspan x="-11.702" y="428">9</tspan><tspan x="-11.702" y="472">0</tspan><tspan x="-11.702" y="516">1</tspan><tspan x="-11.702" y="560">2</tspan><tspan x="-11.702" y="604">3</tspan><tspan x="-11.702" y="648">4</tspan><tspan x="-11.702" y="692">5</tspan><tspan x="-11.702" y="736">6</tspan><tspan x="-11.702" y="780">7</tspan><tspan x="-11.702" y="824">8</tspan><tspan x="-11.702" y="868">9</tspan><tspan x="-11.702" y="912">0</tspan><tspan x="-11.702" y="956">1</tspan><tspan x="-11.702" y="1000">2</tspan><tspan x="-11.702" y="1044">3</tspan><tspan x="-11.702" y="1088">4</tspan><tspan x="-11.702" y="1132">5</tspan><tspan x="-11.702" y="1176">6</tspan><tspan x="-11.702" y="1220">7</tspan><tspan x="-11.702" y="1264">8</tspan><tspan x="-11.702" y="1308">9</tspan><tspan x="-11.702" y="1352">0</tspan></text>
    </g>
    <text id="Days" transform="translate(1275 611)" fill="#00ad2a" font-size="39" font-family="CourierNewPS-BoldMT, Courier New" font-weight="700"><tspan x="-46.808" y="32">Days</tspan></text>
    <text id="Departure" transform="translate(1212 561)" fill="#fff" font-size="30" font-family="CourierNewPS-BoldMT, Courier New" font-weight="700"><tspan x="0" y="25">Departure</tspan></text>
  </g>
</svg>
